<svg width="431" height="495" viewBox="0 0 431 495" fill="none" xmlns="http://www.w3.org/2000/svg" xmlns:xlink="http://www.w3.org/1999/xlink">
<mask id="path-1-inside-1_10_9" fill="white">
<path fill-rule="evenodd" clip-rule="evenodd" d="M205.691 2.51259C211.784 -0.86857 219.197 -0.835248 225.259 2.60048L420.862 113.467C427.128 117.018 431 123.664 431 130.866V362.084C431 369.255 427.16 375.877 420.938 379.44L225.438 491.379C219.281 494.904 211.719 494.904 205.562 491.379L10.0625 379.44C3.83951 375.877 5.84179e-05 369.255 0 362.084V128.442C0 121.176 3.94136 114.481 10.2949 110.955L205.691 2.51259Z"/>
</mask>
<path fill-rule="evenodd" clip-rule="evenodd" d="M205.691 2.51259C211.784 -0.86857 219.197 -0.835248 225.259 2.60048L420.862 113.467C427.128 117.018 431 123.664 431 130.866V362.084C431 369.255 427.16 375.877 420.938 379.44L225.438 491.379C219.281 494.904 211.719 494.904 205.562 491.379L10.0625 379.44C3.83951 375.877 5.84179e-05 369.255 0 362.084V128.442C0 121.176 3.94136 114.481 10.2949 110.955L205.691 2.51259Z" fill="#232323" fill-opacity="0.97"/>
<path fill-rule="evenodd" clip-rule="evenodd" d="M205.691 2.51259C211.784 -0.86857 219.197 -0.835248 225.259 2.60048L420.862 113.467C427.128 117.018 431 123.664 431 130.866V362.084C431 369.255 427.16 375.877 420.938 379.44L225.438 491.379C219.281 494.904 211.719 494.904 205.562 491.379L10.0625 379.44C3.83951 375.877 5.84179e-05 369.255 0 362.084V128.442C0 121.176 3.94136 114.481 10.2949 110.955L205.691 2.51259Z" fill="url(#pattern0_10_9)" fill-opacity="0.3"/>
<path d="M205.691 2.51259L205.206 1.63822V1.63822L205.691 2.51259ZM225.259 2.60048L225.752 1.73051V1.7305L225.259 2.60048ZM420.862 113.467L421.355 112.597V112.597L420.862 113.467ZM431 362.084H432V362.084H431ZM420.938 379.44L421.434 380.308V380.308L420.938 379.44ZM225.438 491.379L225.934 492.247V492.247L225.438 491.379ZM205.562 491.379L205.066 492.247V492.247L205.562 491.379ZM10.0625 379.44L9.56561 380.308H9.56561L10.0625 379.44ZM0 362.084H-1V362.084H0ZM10.2949 110.955L9.80966 110.081V110.081L10.2949 110.955ZM205.691 2.51259L206.177 3.38696C211.964 0.174859 219.007 0.206513 224.766 3.47046L225.259 2.60048L225.752 1.7305C219.387 -1.87701 211.603 -1.912 205.206 1.63822L205.691 2.51259ZM225.259 2.60048L224.766 3.47046L420.369 114.337L420.862 113.467L421.355 112.597L225.752 1.73051L225.259 2.60048ZM420.862 113.467L420.369 114.337C426.321 117.71 430 124.024 430 130.866H431H432C432 123.304 427.934 116.326 421.355 112.597L420.862 113.467ZM431 130.866H430V362.084H431H432V130.866H431ZM431 362.084L430 362.084C430 368.896 426.352 375.188 420.441 378.573L420.938 379.44L421.434 380.308C427.969 376.567 432 369.613 432 362.084H431ZM420.938 379.44L420.441 378.573L224.941 490.511L225.438 491.379L225.934 492.247L421.434 380.308L420.938 379.44ZM225.438 491.379L224.941 490.511C219.092 493.86 211.908 493.86 206.059 490.511L205.562 491.379L205.066 492.247C211.53 495.948 219.47 495.948 225.934 492.247L225.438 491.379ZM205.562 491.379L206.059 490.511L10.5594 378.573L10.0625 379.44L9.56561 380.308L205.066 492.247L205.562 491.379ZM10.0625 379.44L10.5594 378.573C4.64754 375.188 1.00006 368.896 1 362.084L0 362.084H-1C-0.999939 369.613 3.03148 376.567 9.56561 380.308L10.0625 379.44ZM0 362.084H1V128.442H0H-1V362.084H0ZM0 128.442H1C1 121.539 4.74429 115.179 10.7802 111.829L10.2949 110.955L9.80966 110.081C3.13844 113.783 -1 120.812 -1 128.442H0ZM10.2949 110.955L10.7802 111.829L206.177 3.38696L205.691 2.51259L205.206 1.63822L9.80966 110.081L10.2949 110.955Z" fill="black" mask="url(#path-1-inside-1_10_9)"/>
<g clip-path="url(#clip0_10_9)">
<rect x="18" y="208.069" width="394" height="85" rx="10" fill="url(#paint0_linear_10_9)"/>
<g filter="url(#filter0_d_10_9)">
<path d="M65.6101 249.129C69.3301 246.289 73.6101 243.589 78.4501 241.029L85.7101 246.729C84.3901 252.409 82.0701 257.529 78.7501 262.089C82.7501 260.729 87.2901 258.749 92.3701 256.149L93.6301 262.209C91.9901 263.289 89.4901 264.669 86.1301 266.349C80.3701 269.189 76.3901 270.969 74.1901 271.689L66.7501 266.409C69.1501 263.529 71.1501 260.689 72.7501 257.889C74.3901 255.049 75.4501 252.569 75.9301 250.449C70.6901 253.049 67.2301 254.889 65.5501 255.969C63.9101 257.049 62.4301 258.049 61.1101 258.969C59.1501 263.809 57.6501 268.049 56.6101 271.689L49.4701 267.069C50.7901 262.549 53.6901 255.789 58.1701 246.789C62.2501 238.549 65.9101 232.029 69.1501 227.229L75.2701 231.849C71.9101 237.289 68.6901 243.049 65.6101 249.129ZM112.104 261.249C118.584 259.369 123.124 257.669 125.724 256.149L127.044 262.209C123.844 264.609 120.264 266.789 116.304 268.749C114.904 269.469 113.684 270.009 112.644 270.369L109.704 267.129C108.584 272.209 107.264 276.269 105.744 279.309C104.304 282.109 102.264 284.909 99.6245 287.709C95.2245 287.589 90.4045 286.889 85.1645 285.609C83.5245 285.209 82.0245 284.769 80.6645 284.289L80.3045 274.389C82.9845 272.029 85.9645 270.029 89.2445 268.389L85.7645 265.869C86.1245 260.589 88.8645 253.789 93.9845 245.469C95.5845 242.869 97.3445 240.269 99.2645 237.669L105.504 242.409C98.5045 252.249 94.7245 259.489 94.1645 264.129C96.2845 263.809 97.9845 263.309 99.2645 262.629C101.824 261.269 103.864 259.289 105.384 256.689C108.824 249.809 111.904 244.449 114.624 240.609L120.984 245.589C117.064 251.589 114.104 256.809 112.104 261.249ZM86.3645 278.769C90.0445 279.609 93.0845 280.069 95.4845 280.149C98.0845 277.949 100.124 274.489 101.604 269.769C95.0845 272.409 90.0045 275.409 86.3645 278.769ZM134.391 248.229C137.031 245.869 140.531 243.469 144.891 241.029L152.151 246.729C151.831 249.929 151.311 252.689 150.591 255.009C149.871 257.329 148.691 259.329 147.051 261.009C151.371 259.609 155.471 257.989 159.351 256.149L160.611 262.209C155.531 265.049 148.451 267.589 139.371 269.829C136.571 270.549 133.751 271.169 130.911 271.689L125.331 266.589C121.891 274.349 119.331 281.189 117.651 287.109L110.811 282.489C115.731 267.689 122.631 252.809 131.511 237.849L137.571 242.289L134.391 248.229ZM126.051 264.969C130.371 264.289 133.531 263.549 135.531 262.749C138.411 261.389 140.691 258.509 142.371 254.109C142.931 252.749 143.311 251.349 143.511 249.909C139.431 252.069 135.691 254.389 132.291 256.869C131.131 257.709 129.891 258.629 128.571 259.629L126.051 264.969ZM168.132 258.489C166.252 258.489 164.772 258.349 163.692 258.069C163.052 259.629 162.652 261.569 162.492 263.889C169.372 263.489 176.012 261.949 182.412 259.269C184.572 258.389 186.652 257.349 188.652 256.149L189.912 262.209C186.192 264.569 181.792 266.649 176.712 268.449C171.312 270.369 166.212 271.449 161.412 271.689L153.972 264.789C153.972 259.269 155.472 254.229 158.472 249.669C160.632 246.509 163.072 244.009 165.792 242.169C168.552 240.329 171.192 239.009 173.712 238.209L183.852 246.609C182.852 250.769 180.952 253.789 178.152 255.669C175.352 257.549 172.012 258.489 168.132 258.489ZM166.212 252.669C168.532 252.669 170.552 252.029 172.272 250.749C174.272 249.229 175.272 247.109 175.272 244.389C171.232 246.589 168.212 249.349 166.212 252.669ZM187.637 243.189C189.557 240.589 191.957 237.889 194.837 235.089L200.417 239.409C199.977 241.249 199.597 242.589 199.277 243.429C204.437 242.869 208.157 242.309 210.437 241.749C212.717 241.189 214.697 240.689 216.377 240.249L218.057 247.389C216.417 247.869 214.697 248.289 212.897 248.649C210.137 253.009 207.837 257.629 205.997 262.509C212.637 260.229 217.537 258.109 220.697 256.149L222.017 262.209C218.337 264.609 213.517 267.069 207.557 269.589C205.637 270.389 203.797 271.089 202.037 271.689L195.677 265.329C198.277 259.369 201.057 254.229 204.017 249.909C201.217 250.149 198.737 250.309 196.577 250.389C195.937 251.589 194.217 254.589 191.417 259.389L186.977 262.209L181.277 258.849C184.597 255.249 186.837 252.729 187.997 251.289C189.157 249.849 190.157 248.609 190.997 247.569C189.837 246.289 188.717 244.829 187.637 243.189ZM234.076 263.889C230.196 267.329 226.356 269.929 222.556 271.689L214.576 264.789C215.296 260.629 216.276 256.989 217.516 253.869C219.476 248.789 221.976 243.489 225.016 237.969L231.616 242.469C229.296 246.589 227.656 249.909 226.696 252.429C225.256 256.229 224.216 259.589 223.576 262.509C227.336 260.789 232.156 255.669 238.036 247.149C239.796 244.629 241.456 242.009 243.016 239.289L249.916 243.789C246.396 249.629 242.716 254.709 238.876 259.029C241.236 258.909 243.976 258.489 247.096 257.769C250.216 257.049 252.356 256.509 253.516 256.149L254.836 262.209C251.396 264.049 246.956 265.749 241.516 267.309C240.036 267.709 238.776 268.009 237.736 268.209L234.076 263.889ZM262.257 258.489C260.377 258.489 258.897 258.349 257.817 258.069C257.177 259.629 256.777 261.569 256.617 263.889C263.497 263.489 270.137 261.949 276.537 259.269C278.697 258.389 280.777 257.349 282.777 256.149L284.037 262.209C280.317 264.569 275.917 266.649 270.837 268.449C265.437 270.369 260.337 271.449 255.537 271.689L248.097 264.789C248.097 259.269 249.597 254.229 252.597 249.669C254.757 246.509 257.197 244.009 259.917 242.169C262.677 240.329 265.317 239.009 267.837 238.209L277.977 246.609C276.977 250.769 275.077 253.789 272.277 255.669C269.477 257.549 266.137 258.489 262.257 258.489ZM260.337 252.669C262.657 252.669 264.677 252.029 266.397 250.749C268.397 249.229 269.397 247.109 269.397 244.389C265.357 246.589 262.337 249.349 260.337 252.669ZM281.762 243.189C283.682 240.589 286.082 237.889 288.962 235.089L294.542 239.409C294.102 241.249 293.722 242.589 293.402 243.429C298.562 242.869 302.282 242.309 304.562 241.749C306.842 241.189 308.822 240.689 310.502 240.249L312.182 247.389C310.542 247.869 308.822 248.289 307.022 248.649C304.262 253.009 301.962 257.629 300.122 262.509C306.762 260.229 311.662 258.109 314.822 256.149L316.142 262.209C312.462 264.609 307.642 267.069 301.682 269.589C299.762 270.389 297.922 271.089 296.162 271.689L289.802 265.329C292.402 259.369 295.182 254.229 298.142 249.909C295.342 250.149 292.862 250.309 290.702 250.389C290.062 251.589 288.342 254.589 285.542 259.389L281.102 262.209L275.402 258.849C278.722 255.249 280.962 252.729 282.122 251.289C283.282 249.849 284.282 248.609 285.122 247.569C283.962 246.289 282.842 244.829 281.762 243.189ZM319.621 272.169C316.741 270.249 314.221 268.429 312.061 266.709C310.101 264.989 307.961 262.929 305.641 260.529L311.821 256.149C314.621 259.069 316.681 261.029 318.001 262.029C319.321 262.989 320.501 263.809 321.541 264.489C322.661 264.369 324.481 263.989 327.001 263.349L317.041 253.929C316.121 252.969 315.401 252.109 314.881 251.349C316.401 248.629 319.021 245.809 322.741 242.889C326.221 240.169 329.541 238.349 332.701 237.429L342.301 245.169C341.621 247.889 340.021 251.489 337.501 255.969L331.081 251.169C331.921 249.929 332.661 248.589 333.301 247.149C333.941 245.709 334.321 244.749 334.441 244.269C332.201 245.109 329.901 246.629 327.541 248.829C326.701 249.629 325.941 250.449 325.261 251.289C326.021 252.449 327.181 253.669 328.741 254.949C331.381 257.229 333.601 259.189 335.401 260.829C339.841 259.309 343.601 257.749 346.681 256.149L347.941 262.209C344.741 264.489 340.241 266.609 334.441 268.569C329.081 270.369 324.141 271.569 319.621 272.169ZM355.445 258.489C353.565 258.489 352.085 258.349 351.005 258.069C350.365 259.629 349.965 261.569 349.805 263.889C356.685 263.489 363.325 261.949 369.725 259.269C371.885 258.389 373.965 257.349 375.965 256.149L377.225 262.209C373.505 264.569 369.105 266.649 364.025 268.449C358.625 270.369 353.525 271.449 348.725 271.689L341.285 264.789C341.285 259.269 342.785 254.229 345.785 249.669C347.945 246.509 350.385 244.009 353.105 242.169C355.865 240.329 358.505 239.009 361.025 238.209L371.165 246.609C370.165 250.769 368.265 253.789 365.465 255.669C362.665 257.549 359.325 258.489 355.445 258.489ZM353.525 252.669C355.845 252.669 357.865 252.029 359.585 250.749C361.585 249.229 362.585 247.109 362.585 244.389C358.545 246.589 355.525 249.349 353.525 252.669Z" fill="white"/>
</g>
</g>
<defs>
<filter id="filter0_d_10_9" x="47.4702" y="225.229" width="335.754" height="68.48" filterUnits="userSpaceOnUse" color-interpolation-filters="sRGB">
<feFlood flood-opacity="0" result="BackgroundImageFix"/>
<feColorMatrix in="SourceAlpha" type="matrix" values="0 0 0 0 0 0 0 0 0 0 0 0 0 0 0 0 0 0 127 0" result="hardAlpha"/>
<feOffset dx="2" dy="2"/>
<feGaussianBlur stdDeviation="2"/>
<feComposite in2="hardAlpha" operator="out"/>
<feColorMatrix type="matrix" values="0 0 0 0 0 0 0 0 0 0 0 0 0 0 0 0 0 0 0.25 0"/>
<feBlend mode="normal" in2="BackgroundImageFix" result="effect1_dropShadow_10_9"/>
<feBlend mode="normal" in="SourceGraphic" in2="effect1_dropShadow_10_9" result="shape"/>
</filter>
<linearGradient id="paint0_linear_10_9" x1="173" y1="104" x2="290" y2="500" gradientUnits="userSpaceOnUse">
<stop stop-color="#232323"/>
<stop offset="0.788204" stop-color="#7D7C61"/>
</linearGradient>
<clipPath id="clip0_10_9">
<rect x="18" y="208.069" width="394" height="85" rx="10" fill="white"/>
</clipPath>
<pattern id="pattern0_10_9" patternUnits="userSpaceOnUse" patternTransform="matrix(20 0 0 20 213 244.518)" preserveAspectRatio="none" viewBox="0 0 20 20" width="1" height="1">
<g id="pattern0_10_9_inner">
<circle cx="2.5" cy="2.5" r="2.5" fill="#B9B9B9"/>
</g>
</pattern></defs>
</svg>
